<?xml version="1.0" encoding="UTF-8" standalone="no"?>
<!DOCTYPE svg PUBLIC "-//W3C//DTD SVG 1.1//EN"
    "http://www.w3.org/Graphics/SVG/1.1/DTD/svg11.dtd">
<!-- Generated by graphviz version 2.43.0 (0)
 -->
<!-- Title: Morton Pages: 1 -->
<svg width="651pt" height="583pt"
     viewBox="0.00 0.00 651.00 582.62" xmlns="http://www.w3.org/2000/svg">
    <g id="graph0" class="graph" transform="scale(1 1) rotate(0) translate(4 578.62)">
        <title>Morton</title>
        <polygon fill="white" stroke="transparent" points="-4,4 -4,-578.62 647,-578.62 647,4 -4,4"/>
        <g id="clust2" class="cluster">
            <title>cluster_encoding</title>
            <polygon fill="lavender" stroke="lavender" points="8,-344.81 8,-523.62 565,-523.62 565,-344.81 8,-344.81"/>
            <text text-anchor="middle" x="42" y="-508.42" font-family="Times,serif" font-size="14.00">Encoding</text>
        </g>
        <g id="clust3" class="cluster">
            <title>cluster_decoding</title>
            <polygon fill="lavender" stroke="lavender" points="78,-71 78,-249.81 635,-249.81 635,-71 78,-71"/>
            <text text-anchor="middle" x="112.5" y="-234.61" font-family="Times,serif" font-size="14.00">Decoding</text>
        </g>
        <!-- x_in -->
        <g id="node1" class="node">
            <title>x_in</title>
            <polygon fill="lightgreen" stroke="lightgreen"
                     points="277,-574.62 207,-574.62 207,-531.62 277,-531.62 277,-574.62"/>
            <text text-anchor="middle" x="242" y="-549.42" font-family="Times,serif" font-size="14.00">x: 1010</text>
        </g>
        <!-- interleave -->
        <g id="node3" class="node">
            <title>interleave</title>
            <ellipse fill="#b0e2ff" stroke="#b0e2ff" cx="286" cy="-462.22" rx="66.44" ry="30.31"/>
            <text text-anchor="middle" x="286" y="-458.52" font-family="Times,serif" font-size="14.00">Interleaving
            </text>
        </g>
        <!-- x_in&#45;&gt;interleave -->
        <g id="edge1" class="edge">
            <title>x_in&#45;&gt;interleave</title>
            <path fill="none" stroke="black" d="M252.21,-531.5C256.68,-522.46 262.08,-511.54 267.24,-501.12"/>
            <polygon fill="black" stroke="black" points="270.39,-502.66 271.68,-492.14 264.11,-499.55 270.39,-502.66"/>
        </g>
        <!-- y_in -->
        <g id="node2" class="node">
            <title>y_in</title>
            <polygon fill="#ffec8b" stroke="#ffec8b"
                     points="365,-574.62 295,-574.62 295,-531.62 365,-531.62 365,-574.62"/>
            <text text-anchor="middle" x="330" y="-549.42" font-family="Times,serif" font-size="14.00">y: 1101</text>
        </g>
        <!-- y_in&#45;&gt;interleave -->
        <g id="edge2" class="edge">
            <title>y_in&#45;&gt;interleave</title>
            <path fill="none" stroke="black" d="M319.79,-531.5C315.32,-522.46 309.92,-511.54 304.76,-501.12"/>
            <polygon fill="black" stroke="black" points="307.89,-499.55 300.32,-492.14 301.61,-502.66 307.89,-499.55"/>
        </g>
        <!-- x_bits -->
        <g id="node4" class="node">
            <title>x_bits</title>
            <polygon fill="lightgreen" stroke="lightgreen"
                     points="277.5,-395.81 16.5,-395.81 16.5,-352.81 277.5,-352.81 277.5,-395.81"/>
            <text text-anchor="middle" x="147" y="-370.61" font-family="Times,serif" font-size="14.00">z0 = x0:1, z2 =
                x1:0, z4 = x2:1, z6 = x3:0
            </text>
        </g>
        <!-- interleave&#45;&gt;x_bits -->
        <g id="edge3" class="edge">
            <title>interleave&#45;&gt;x_bits</title>
            <path fill="none" stroke="black" d="M247.28,-437.29C229.11,-426.06 207.43,-412.66 188.88,-401.19"/>
            <polygon fill="black" stroke="black" points="190.67,-398.19 180.32,-395.91 186.99,-404.14 190.67,-398.19"/>
        </g>
        <!-- y_bits -->
        <g id="node5" class="node">
            <title>y_bits</title>
            <polygon fill="#ffec8b" stroke="#ffec8b"
                     points="556.5,-395.81 295.5,-395.81 295.5,-352.81 556.5,-352.81 556.5,-395.81"/>
            <text text-anchor="middle" x="426" y="-370.61" font-family="Times,serif" font-size="14.00">z1 = y0:1, z3 =
                y1:1, z5 = y2:0, z7 = y3:1
            </text>
        </g>
        <!-- interleave&#45;&gt;y_bits -->
        <g id="edge4" class="edge">
            <title>interleave&#45;&gt;y_bits</title>
            <path fill="none" stroke="black" d="M325,-437.29C343.3,-426.06 365.14,-412.66 383.82,-401.19"/>
            <polygon fill="black" stroke="black" points="385.74,-404.12 392.44,-395.91 382.08,-398.15 385.74,-404.12"/>
        </g>
        <!-- morton -->
        <g id="node6" class="node">
            <title>morton</title>
            <polygon fill="lemonchiffon" stroke="lemonchiffon"
                     points="385,-316.81 187,-316.81 187,-257.81 385,-257.81 385,-316.81"/>
            <text text-anchor="middle" x="286" y="-283.61" font-family="Times,serif" font-size="14.00">z: 11101001
                (Morton Code)
            </text>
        </g>
        <!-- x_bits&#45;&gt;morton -->
        <g id="edge5" class="edge">
            <title>x_bits&#45;&gt;morton</title>
            <path fill="none" stroke="black" d="M180.65,-352.74C195.63,-343.57 213.68,-332.54 230.57,-322.21"/>
            <polygon fill="black" stroke="black" points="232.57,-325.09 239.27,-316.89 228.91,-319.12 232.57,-325.09"/>
        </g>
        <!-- y_bits&#45;&gt;morton -->
        <g id="edge6" class="edge">
            <title>y_bits&#45;&gt;morton</title>
            <path fill="none" stroke="black" d="M392.11,-352.74C377.02,-343.57 358.84,-332.54 341.83,-322.21"/>
            <polygon fill="black" stroke="black" points="343.43,-319.08 333.07,-316.89 339.8,-325.07 343.43,-319.08"/>
        </g>
        <!-- deinterleave -->
        <g id="node7" class="node">
            <title>deinterleave</title>
            <ellipse fill="#b0e2ff" stroke="#b0e2ff" cx="286" cy="-188.41" rx="77.15" ry="30.31"/>
            <text text-anchor="middle" x="286" y="-184.71" font-family="Times,serif" font-size="14.00">Deinterleaving
            </text>
        </g>
        <!-- morton&#45;&gt;deinterleave -->
        <g id="edge7" class="edge">
            <title>morton&#45;&gt;deinterleave</title>
            <path fill="none" stroke="black" d="M286,-257.76C286,-248.82 286,-238.79 286,-229.22"/>
            <polygon fill="black" stroke="black" points="289.5,-229.1 286,-219.1 282.5,-229.1 289.5,-229.1"/>
        </g>
        <!-- x_bits_dec -->
        <g id="node8" class="node">
            <title>x_bits_dec</title>
            <polygon fill="lightgreen" stroke="lightgreen" points="347.5,-122 86.5,-122 86.5,-79 347.5,-79 347.5,-122"/>
            <text text-anchor="middle" x="217" y="-96.8" font-family="Times,serif" font-size="14.00">x0 = z0:1, x1 =
                z2:0, x2 = z4:1, x3 = z6:0
            </text>
        </g>
        <!-- deinterleave&#45;&gt;x_bits_dec -->
        <g id="edge8" class="edge">
            <title>deinterleave&#45;&gt;x_bits_dec</title>
            <path fill="none" stroke="black" d="M263.41,-159.28C255.87,-149.89 247.46,-139.43 239.9,-130.01"/>
            <polygon fill="black" stroke="black" points="242.51,-127.67 233.52,-122.06 237.05,-132.05 242.51,-127.67"/>
        </g>
        <!-- y_bits_dec -->
        <g id="node9" class="node">
            <title>y_bits_dec</title>
            <polygon fill="#ffec8b" stroke="#ffec8b" points="626.5,-122 365.5,-122 365.5,-79 626.5,-79 626.5,-122"/>
            <text text-anchor="middle" x="496" y="-96.8" font-family="Times,serif" font-size="14.00">y0 = z1:1, y1 =
                z3:1, y2 = z5:0, y3 = z7:1
            </text>
        </g>
        <!-- deinterleave&#45;&gt;y_bits_dec -->
        <g id="edge9" class="edge">
            <title>deinterleave&#45;&gt;y_bits_dec</title>
            <path fill="none" stroke="black" d="M338.45,-165.95C368.18,-153.79 405.47,-138.53 436.32,-125.92"/>
            <polygon fill="black" stroke="black" points="437.73,-129.12 445.66,-122.09 435.08,-122.64 437.73,-129.12"/>
        </g>
        <!-- x_out -->
        <g id="node10" class="node">
            <title>x_out</title>
            <polygon fill="lightgreen" stroke="lightgreen" points="252,-43 182,-43 182,0 252,0 252,-43"/>
            <text text-anchor="middle" x="217" y="-17.8" font-family="Times,serif" font-size="14.00">x: 1010</text>
        </g>
        <!-- x_bits_dec&#45;&gt;x_out -->
        <g id="edge10" class="edge">
            <title>x_bits_dec&#45;&gt;x_out</title>
            <path fill="none" stroke="black" d="M217,-78.87C217,-71.01 217,-61.88 217,-53.29"/>
            <polygon fill="black" stroke="black" points="220.5,-53.19 217,-43.19 213.5,-53.19 220.5,-53.19"/>
        </g>
        <!-- y_out -->
        <g id="node11" class="node">
            <title>y_out</title>
            <polygon fill="#ffec8b" stroke="#ffec8b" points="531,-43 461,-43 461,0 531,0 531,-43"/>
            <text text-anchor="middle" x="496" y="-17.8" font-family="Times,serif" font-size="14.00">y: 1101</text>
        </g>
        <!-- y_bits_dec&#45;&gt;y_out -->
        <g id="edge11" class="edge">
            <title>y_bits_dec&#45;&gt;y_out</title>
            <path fill="none" stroke="black" d="M496,-78.87C496,-71.01 496,-61.88 496,-53.29"/>
            <polygon fill="black" stroke="black" points="499.5,-53.19 496,-43.19 492.5,-53.19 499.5,-53.19"/>
        </g>
    </g>
</svg>
