<?xml version="1.0" encoding="UTF-8" standalone="no"?>
<!DOCTYPE svg PUBLIC "-//W3C//DTD SVG 1.1//EN"
    "http://www.w3.org/Graphics/SVG/1.1/DTD/svg11.dtd">
<!-- Generated by graphviz version 2.43.0 (0)
 -->
<!-- Title: Morton Pages: 1 -->
<svg width="774pt" height="547pt"
     viewBox="0.00 0.00 774.00 547.00" xmlns="http://www.w3.org/2000/svg">
    <g id="graph0" class="graph" transform="scale(1 1) rotate(0) translate(4 543)">
        <title>Morton</title>
        <polygon fill="white" stroke="transparent" points="-4,4 -4,-543 770,-543 770,4 -4,4"/>
        <g id="clust2" class="cluster">
            <title>cluster_encoding</title>
            <polygon fill="#ffec8b" stroke="#ffec8b" points="8,-327 8,-488 735,-488 735,-327 8,-327"/>
            <text text-anchor="middle" x="42" y="-472.8" font-family="Times,serif" font-size="14.00">Encoding</text>
        </g>
        <g id="clust3" class="cluster">
            <title>cluster_decoding</title>
            <polygon fill="#e0ffff" stroke="#e0ffff" points="31,-71 31,-232 758,-232 758,-71 31,-71"/>
            <text text-anchor="middle" x="65.5" y="-216.8" font-family="Times,serif" font-size="14.00">Decoding</text>
        </g>
        <!-- x_in -->
        <g id="node1" class="node">
            <title>x_in</title>
            <polygon fill="lightgreen" stroke="lightgreen" points="362,-539 292,-539 292,-496 362,-496 362,-539"/>
            <text text-anchor="middle" x="327" y="-513.8" font-family="Times,serif" font-size="14.00">x: 1010</text>
        </g>
        <!-- interleave -->
        <g id="node3" class="node">
            <title>interleave</title>
            <polygon fill="darkorange" stroke="darkorange" points="418,-457 324,-457 324,-414 418,-414 418,-457"/>
            <text text-anchor="middle" x="371" y="-431.8" font-family="Times,serif" font-size="14.00">Interleaving
            </text>
        </g>
        <!-- x_in&#45;&gt;interleave -->
        <g id="edge1" class="edge">
            <title>x_in&#45;&gt;interleave</title>
            <path fill="none" stroke="black" d="M338.33,-495.9C343.36,-486.75 349.37,-475.82 354.86,-465.85"/>
            <polygon fill="black" stroke="black" points="357.95,-467.48 359.71,-457.03 351.82,-464.11 357.95,-467.48"/>
        </g>
        <!-- y_in -->
        <g id="node2" class="node">
            <title>y_in</title>
            <polygon fill="lightcoral" stroke="lightcoral" points="450,-539 380,-539 380,-496 450,-496 450,-539"/>
            <text text-anchor="middle" x="415" y="-513.8" font-family="Times,serif" font-size="14.00">y: 1101</text>
        </g>
        <!-- y_in&#45;&gt;interleave -->
        <g id="edge2" class="edge">
            <title>y_in&#45;&gt;interleave</title>
            <path fill="none" stroke="black" d="M403.67,-495.9C398.64,-486.75 392.63,-475.82 387.14,-465.85"/>
            <polygon fill="black" stroke="black" points="390.18,-464.11 382.29,-457.03 384.05,-467.48 390.18,-464.11"/>
        </g>
        <!-- x0 -->
        <g id="node4" class="node">
            <title>x0</title>
            <polygon fill="lightgreen" stroke="lightgreen" points="89.5,-378 16.5,-378 16.5,-335 89.5,-335 89.5,-378"/>
            <text text-anchor="middle" x="53" y="-352.8" font-family="Times,serif" font-size="14.00">z0:x0: 1</text>
        </g>
        <!-- interleave&#45;&gt;x0 -->
        <g id="edge3" class="edge">
            <title>interleave&#45;&gt;x0</title>
            <path fill="none" stroke="black" d="M323.52,-427.8C270.64,-419.65 182.71,-404.02 99.26,-377.74"/>
            <polygon fill="black" stroke="black" points="100.23,-374.38 89.64,-374.66 98.09,-381.04 100.23,-374.38"/>
        </g>
        <!-- x1 -->
        <g id="node5" class="node">
            <title>x1</title>
            <polygon fill="lightgreen" stroke="lightgreen"
                     points="180.5,-378 107.5,-378 107.5,-335 180.5,-335 180.5,-378"/>
            <text text-anchor="middle" x="144" y="-352.8" font-family="Times,serif" font-size="14.00">z2:x1: 0</text>
        </g>
        <!-- interleave&#45;&gt;x1 -->
        <g id="edge5" class="edge">
            <title>interleave&#45;&gt;x1</title>
            <path fill="none" stroke="black" d="M323.99,-421.46C289.31,-411.47 240.89,-396.76 190.23,-377.9"/>
            <polygon fill="black" stroke="black" points="191.34,-374.58 180.75,-374.33 188.88,-381.13 191.34,-374.58"/>
        </g>
        <!-- x2 -->
        <g id="node6" class="node">
            <title>x2</title>
            <polygon fill="lightgreen" stroke="lightgreen"
                     points="271.5,-378 198.5,-378 198.5,-335 271.5,-335 271.5,-378"/>
            <text text-anchor="middle" x="235" y="-352.8" font-family="Times,serif" font-size="14.00">z4:x2: 1</text>
        </g>
        <!-- interleave&#45;&gt;x2 -->
        <g id="edge7" class="edge">
            <title>interleave&#45;&gt;x2</title>
            <path fill="none" stroke="black" d="M334.55,-413.87C317.94,-404.46 298.09,-393.22 280.51,-383.26"/>
            <polygon fill="black" stroke="black" points="281.97,-380.07 271.55,-378.19 278.52,-386.16 281.97,-380.07"/>
        </g>
        <!-- x3 -->
        <g id="node7" class="node">
            <title>x3</title>
            <polygon fill="lightgreen" stroke="lightgreen"
                     points="362.5,-378 289.5,-378 289.5,-335 362.5,-335 362.5,-378"/>
            <text text-anchor="middle" x="326" y="-352.8" font-family="Times,serif" font-size="14.00">z6:x3: 0</text>
        </g>
        <!-- interleave&#45;&gt;x3 -->
        <g id="edge9" class="edge">
            <title>interleave&#45;&gt;x3</title>
            <path fill="none" stroke="black" d="M358.94,-413.87C354.1,-405.58 348.43,-395.88 343.17,-386.88"/>
            <polygon fill="black" stroke="black" points="346.16,-385.06 338.09,-378.19 340.12,-388.59 346.16,-385.06"/>
        </g>
        <!-- y0 -->
        <g id="node8" class="node">
            <title>y0</title>
            <polygon fill="lightcoral" stroke="lightcoral"
                     points="453.5,-378 380.5,-378 380.5,-335 453.5,-335 453.5,-378"/>
            <text text-anchor="middle" x="417" y="-352.8" font-family="Times,serif" font-size="14.00">z1:y0: 1</text>
        </g>
        <!-- interleave&#45;&gt;y0 -->
        <g id="edge4" class="edge">
            <title>interleave&#45;&gt;y0</title>
            <path fill="none" stroke="black" d="M383.33,-413.87C388.28,-405.58 394.07,-395.88 399.45,-386.88"/>
            <polygon fill="black" stroke="black" points="402.51,-388.57 404.64,-378.19 396.51,-384.98 402.51,-388.57"/>
        </g>
        <!-- y1 -->
        <g id="node9" class="node">
            <title>y1</title>
            <polygon fill="lightcoral" stroke="lightcoral"
                     points="544.5,-378 471.5,-378 471.5,-335 544.5,-335 544.5,-378"/>
            <text text-anchor="middle" x="508" y="-352.8" font-family="Times,serif" font-size="14.00">z3:y1: 1</text>
        </g>
        <!-- interleave&#45;&gt;y1 -->
        <g id="edge6" class="edge">
            <title>interleave&#45;&gt;y1</title>
            <path fill="none" stroke="black" d="M407.71,-413.87C424.45,-404.46 444.44,-393.22 462.16,-383.26"/>
            <polygon fill="black" stroke="black" points="464.18,-386.14 471.19,-378.19 460.75,-380.04 464.18,-386.14"/>
        </g>
        <!-- y2 -->
        <g id="node10" class="node">
            <title>y2</title>
            <polygon fill="lightcoral" stroke="lightcoral"
                     points="635.5,-378 562.5,-378 562.5,-335 635.5,-335 635.5,-378"/>
            <text text-anchor="middle" x="599" y="-352.8" font-family="Times,serif" font-size="14.00">z5:y2: 0</text>
        </g>
        <!-- interleave&#45;&gt;y2 -->
        <g id="edge8" class="edge">
            <title>interleave&#45;&gt;y2</title>
            <path fill="none" stroke="black" d="M418.19,-421.73C453.3,-411.83 502.45,-397.11 552.89,-378.24"/>
            <polygon fill="black" stroke="black" points="554.21,-381.48 562.33,-374.67 551.73,-374.94 554.21,-381.48"/>
        </g>
        <!-- y3 -->
        <g id="node11" class="node">
            <title>y3</title>
            <polygon fill="lightcoral" stroke="lightcoral"
                     points="726.5,-378 653.5,-378 653.5,-335 726.5,-335 726.5,-378"/>
            <text text-anchor="middle" x="690" y="-352.8" font-family="Times,serif" font-size="14.00">z7:y3: 1</text>
        </g>
        <!-- interleave&#45;&gt;y3 -->
        <g id="edge10" class="edge">
            <title>interleave&#45;&gt;y3</title>
            <path fill="none" stroke="black" d="M418.37,-428.03C471.61,-420.04 560.52,-404.52 643.83,-378.07"/>
            <polygon fill="black" stroke="black" points="644.99,-381.38 653.43,-374.97 642.84,-374.72 644.99,-381.38"/>
        </g>
        <!-- morton -->
        <g id="node12" class="node">
            <title>morton</title>
            <polygon fill="lightyellow" stroke="lightyellow"
                     points="468.5,-299 273.5,-299 273.5,-240 468.5,-240 468.5,-299"/>
            <text text-anchor="middle" x="371" y="-265.8" font-family="Times,serif" font-size="14.00">z: 11101001
                (Morton code)
            </text>
        </g>
        <!-- x0&#45;&gt;morton -->
        <g id="edge11" class="edge">
            <title>x0&#45;&gt;morton</title>
            <path fill="none" stroke="black"
                  d="M82.89,-334.93C88.1,-331.94 93.59,-329.16 99,-327 151.18,-306.17 212.19,-292.6 263.19,-284"/>
            <polygon fill="black" stroke="black" points="263.95,-287.42 273.25,-282.34 262.81,-280.51 263.95,-287.42"/>
        </g>
        <!-- x1&#45;&gt;morton -->
        <g id="edge13" class="edge">
            <title>x1&#45;&gt;morton</title>
            <path fill="none" stroke="black"
                  d="M174.84,-334.94C179.8,-332.06 184.96,-329.3 190,-327 213.13,-316.43 238.78,-307.1 263.32,-299.21"/>
            <polygon fill="black" stroke="black" points="264.55,-302.5 273.03,-296.15 262.44,-295.82 264.55,-302.5"/>
        </g>
        <!-- x2&#45;&gt;morton -->
        <g id="edge15" class="edge">
            <title>x2&#45;&gt;morton</title>
            <path fill="none" stroke="black" d="M267.92,-334.92C282.58,-325.76 300.24,-314.73 316.76,-304.4"/>
            <polygon fill="black" stroke="black" points="318.65,-307.34 325.28,-299.08 314.94,-301.41 318.65,-307.34"/>
        </g>
        <!-- x3&#45;&gt;morton -->
        <g id="edge17" class="edge">
            <title>x3&#45;&gt;morton</title>
            <path fill="none" stroke="black" d="M336.89,-334.92C341.15,-326.89 346.16,-317.42 351.02,-308.25"/>
            <polygon fill="black" stroke="black" points="354.2,-309.71 355.79,-299.24 348.01,-306.44 354.2,-309.71"/>
        </g>
        <!-- y0&#45;&gt;morton -->
        <g id="edge12" class="edge">
            <title>y0&#45;&gt;morton</title>
            <path fill="none" stroke="black" d="M405.86,-334.92C401.52,-326.89 396.39,-317.42 391.43,-308.25"/>
            <polygon fill="black" stroke="black" points="394.39,-306.37 386.55,-299.24 388.23,-309.7 394.39,-306.37"/>
        </g>
        <!-- y1&#45;&gt;morton -->
        <g id="edge14" class="edge">
            <title>y1&#45;&gt;morton</title>
            <path fill="none" stroke="black"
                  d="M475.59,-334.9C471.36,-332.23 467.08,-329.54 463,-327 451.23,-319.66 438.57,-311.84 426.52,-304.43"/>
            <polygon fill="black" stroke="black" points="428.23,-301.37 417.88,-299.12 424.57,-307.33 428.23,-301.37"/>
        </g>
        <!-- y2&#45;&gt;morton -->
        <g id="edge16" class="edge">
            <title>y2&#45;&gt;morton</title>
            <path fill="none" stroke="black"
                  d="M568.62,-334.76C563.84,-331.94 558.87,-329.25 554,-327 530.17,-316.01 503.64,-306.43 478.34,-298.43"/>
            <polygon fill="black" stroke="black" points="479.3,-295.06 468.72,-295.44 477.23,-301.75 479.3,-295.06"/>
        </g>
        <!-- y3&#45;&gt;morton -->
        <g id="edge18" class="edge">
            <title>y3&#45;&gt;morton</title>
            <path fill="none" stroke="black"
                  d="M660.8,-334.91C655.7,-331.93 650.32,-329.15 645,-327 592.23,-305.68 530.35,-292.04 478.77,-283.51"/>
            <polygon fill="black" stroke="black" points="479.02,-280.01 468.59,-281.88 477.91,-286.92 479.02,-280.01"/>
        </g>
        <!-- deinterleave -->
        <g id="node13" class="node">
            <title>deinterleave</title>
            <polygon fill="darkorange" stroke="darkorange"
                     points="425.5,-201 316.5,-201 316.5,-158 425.5,-158 425.5,-201"/>
            <text text-anchor="middle" x="371" y="-175.8" font-family="Times,serif" font-size="14.00">Deinterleaving
            </text>
        </g>
        <!-- morton&#45;&gt;deinterleave -->
        <g id="edge19" class="edge">
            <title>morton&#45;&gt;deinterleave</title>
            <path fill="none" stroke="black" d="M371,-239.69C371,-230.51 371,-220.33 371,-211.03"/>
            <polygon fill="black" stroke="black" points="374.5,-211.01 371,-201.01 367.5,-211.01 374.5,-211.01"/>
        </g>
        <!-- x0_dec -->
        <g id="node14" class="node">
            <title>x0_dec</title>
            <polygon fill="lightgreen" stroke="lightgreen" points="112.5,-122 39.5,-122 39.5,-79 112.5,-79 112.5,-122"/>
            <text text-anchor="middle" x="76" y="-96.8" font-family="Times,serif" font-size="14.00">x0:z0: 1</text>
        </g>
        <!-- deinterleave&#45;&gt;x0_dec -->
        <g id="edge20" class="edge">
            <title>deinterleave&#45;&gt;x0_dec</title>
            <path fill="none" stroke="black" d="M316.25,-169.27C267.42,-160.33 194.04,-145.14 122.31,-121.79"/>
            <polygon fill="black" stroke="black" points="123.25,-118.42 112.66,-118.6 121.05,-125.06 123.25,-118.42"/>
        </g>
        <!-- x1_dec -->
        <g id="node15" class="node">
            <title>x1_dec</title>
            <polygon fill="lightgreen" stroke="lightgreen"
                     points="203.5,-122 130.5,-122 130.5,-79 203.5,-79 203.5,-122"/>
            <text text-anchor="middle" x="167" y="-96.8" font-family="Times,serif" font-size="14.00">x1:z2: 0</text>
        </g>
        <!-- deinterleave&#45;&gt;x1_dec -->
        <g id="edge22" class="edge">
            <title>deinterleave&#45;&gt;x1_dec</title>
            <path fill="none" stroke="black"
                  d="M316.14,-160.03C285.57,-149.45 246.93,-135.61 213,-122 212.9,-121.96 212.81,-121.92 212.71,-121.88"/>
            <polygon fill="black" stroke="black" points="214.13,-118.68 203.55,-118.09 211.45,-125.15 214.13,-118.68"/>
        </g>
        <!-- x2_dec -->
        <g id="node16" class="node">
            <title>x2_dec</title>
            <polygon fill="lightgreen" stroke="lightgreen"
                     points="294.5,-122 221.5,-122 221.5,-79 294.5,-79 294.5,-122"/>
            <text text-anchor="middle" x="258" y="-96.8" font-family="Times,serif" font-size="14.00">x2:z4: 1</text>
        </g>
        <!-- deinterleave&#45;&gt;x2_dec -->
        <g id="edge24" class="edge">
            <title>deinterleave&#45;&gt;x2_dec</title>
            <path fill="none" stroke="black" d="M340.72,-157.87C327.29,-148.72 311.33,-137.84 297.02,-128.09"/>
            <polygon fill="black" stroke="black" points="298.6,-124.93 288.37,-122.19 294.66,-130.72 298.6,-124.93"/>
        </g>
        <!-- x3_dec -->
        <g id="node17" class="node">
            <title>x3_dec</title>
            <polygon fill="lightgreen" stroke="lightgreen"
                     points="385.5,-122 312.5,-122 312.5,-79 385.5,-79 385.5,-122"/>
            <text text-anchor="middle" x="349" y="-96.8" font-family="Times,serif" font-size="14.00">x3:z6: 0</text>
        </g>
        <!-- deinterleave&#45;&gt;x3_dec -->
        <g id="edge26" class="edge">
            <title>deinterleave&#45;&gt;x3_dec</title>
            <path fill="none" stroke="black" d="M365.1,-157.87C362.84,-149.92 360.19,-140.68 357.72,-132"/>
            <polygon fill="black" stroke="black" points="361.02,-130.85 354.91,-122.19 354.29,-132.77 361.02,-130.85"/>
        </g>
        <!-- y0_dec -->
        <g id="node18" class="node">
            <title>y0_dec</title>
            <polygon fill="lightcoral" stroke="lightcoral"
                     points="476.5,-122 403.5,-122 403.5,-79 476.5,-79 476.5,-122"/>
            <text text-anchor="middle" x="440" y="-96.8" font-family="Times,serif" font-size="14.00">y0:z1: 1</text>
        </g>
        <!-- deinterleave&#45;&gt;y0_dec -->
        <g id="edge21" class="edge">
            <title>deinterleave&#45;&gt;y0_dec</title>
            <path fill="none" stroke="black" d="M389.49,-157.87C397.23,-149.23 406.34,-139.06 414.68,-129.76"/>
            <polygon fill="black" stroke="black" points="417.39,-131.97 421.46,-122.19 412.18,-127.3 417.39,-131.97"/>
        </g>
        <!-- y1_dec -->
        <g id="node19" class="node">
            <title>y1_dec</title>
            <polygon fill="lightcoral" stroke="lightcoral"
                     points="567.5,-122 494.5,-122 494.5,-79 567.5,-79 567.5,-122"/>
            <text text-anchor="middle" x="531" y="-96.8" font-family="Times,serif" font-size="14.00">y1:z3: 1</text>
        </g>
        <!-- deinterleave&#45;&gt;y1_dec -->
        <g id="edge23" class="edge">
            <title>deinterleave&#45;&gt;y1_dec</title>
            <path fill="none" stroke="black" d="M413.88,-157.87C435.83,-147.3 462.57,-134.43 484.95,-123.66"/>
            <polygon fill="black" stroke="black" points="486.76,-126.67 494.25,-119.18 483.72,-120.37 486.76,-126.67"/>
        </g>
        <!-- y2_dec -->
        <g id="node20" class="node">
            <title>y2_dec</title>
            <polygon fill="lightcoral" stroke="lightcoral"
                     points="658.5,-122 585.5,-122 585.5,-79 658.5,-79 658.5,-122"/>
            <text text-anchor="middle" x="622" y="-96.8" font-family="Times,serif" font-size="14.00">y2:z5: 0</text>
        </g>
        <!-- deinterleave&#45;&gt;y2_dec -->
        <g id="edge25" class="edge">
            <title>deinterleave&#45;&gt;y2_dec</title>
            <path fill="none" stroke="black" d="M425.52,-166.07C465.18,-156.46 520.2,-141.95 575.72,-122.24"/>
            <polygon fill="black" stroke="black" points="577.14,-125.45 585.36,-118.77 574.77,-118.86 577.14,-125.45"/>
        </g>
        <!-- y3_dec -->
        <g id="node21" class="node">
            <title>y3_dec</title>
            <polygon fill="lightcoral" stroke="lightcoral"
                     points="749.5,-122 676.5,-122 676.5,-79 749.5,-79 749.5,-122"/>
            <text text-anchor="middle" x="713" y="-96.8" font-family="Times,serif" font-size="14.00">y3:z7: 1</text>
        </g>
        <!-- deinterleave&#45;&gt;y3_dec -->
        <g id="edge27" class="edge">
            <title>deinterleave&#45;&gt;y3_dec</title>
            <path fill="none" stroke="black" d="M425.62,-172.1C483.82,-164.4 578.52,-149.34 666.82,-122.05"/>
            <polygon fill="black" stroke="black" points="667.96,-125.36 676.45,-119.02 665.86,-118.68 667.96,-125.36"/>
        </g>
        <!-- x_out -->
        <g id="node22" class="node">
            <title>x_out</title>
            <polygon fill="lightgreen" stroke="lightgreen" points="248,-43 178,-43 178,0 248,0 248,-43"/>
            <text text-anchor="middle" x="213" y="-17.8" font-family="Times,serif" font-size="14.00">x: 1010</text>
        </g>
        <!-- x0_dec&#45;&gt;x_out -->
        <g id="edge28" class="edge">
            <title>x0_dec&#45;&gt;x_out</title>
            <path fill="none" stroke="black"
                  d="M108.51,-79C113.01,-76.26 117.6,-73.53 122,-71 137.03,-62.35 153.72,-53.3 168.66,-45.39"/>
            <polygon fill="black" stroke="black" points="170.49,-48.38 177.71,-40.63 167.23,-42.19 170.49,-48.38"/>
        </g>
        <!-- x1_dec&#45;&gt;x_out -->
        <g id="edge29" class="edge">
            <title>x1_dec&#45;&gt;x_out</title>
            <path fill="none" stroke="black" d="M179.33,-78.87C184.28,-70.58 190.07,-60.88 195.45,-51.88"/>
            <polygon fill="black" stroke="black" points="198.51,-53.57 200.64,-43.19 192.51,-49.98 198.51,-53.57"/>
        </g>
        <!-- x2_dec&#45;&gt;x_out -->
        <g id="edge30" class="edge">
            <title>x2_dec&#45;&gt;x_out</title>
            <path fill="none" stroke="black" d="M245.94,-78.87C241.1,-70.58 235.43,-60.88 230.17,-51.88"/>
            <polygon fill="black" stroke="black" points="233.16,-50.06 225.09,-43.19 227.12,-53.59 233.16,-50.06"/>
        </g>
        <!-- x3_dec&#45;&gt;x_out -->
        <g id="edge31" class="edge">
            <title>x3_dec&#45;&gt;x_out</title>
            <path fill="none" stroke="black"
                  d="M317.22,-78.96C312.81,-76.23 308.32,-73.51 304,-71 289.01,-62.27 272.33,-53.21 257.39,-45.3"/>
            <polygon fill="black" stroke="black" points="258.82,-42.1 248.34,-40.55 255.56,-48.3 258.82,-42.1"/>
        </g>
        <!-- y_out -->
        <g id="node23" class="node">
            <title>y_out</title>
            <polygon fill="lightcoral" stroke="lightcoral" points="611,-43 541,-43 541,0 611,0 611,-43"/>
            <text text-anchor="middle" x="576" y="-17.8" font-family="Times,serif" font-size="14.00">y: 1101</text>
        </g>
        <!-- y0_dec&#45;&gt;y_out -->
        <g id="edge32" class="edge">
            <title>y0_dec&#45;&gt;y_out</title>
            <path fill="none" stroke="black"
                  d="M472.77,-78.86C477.19,-76.18 481.69,-73.49 486,-71 500.76,-62.46 517.11,-53.5 531.79,-45.64"/>
            <polygon fill="black" stroke="black" points="533.5,-48.69 540.68,-40.9 530.21,-42.52 533.5,-48.69"/>
        </g>
        <!-- y1_dec&#45;&gt;y_out -->
        <g id="edge33" class="edge">
            <title>y1_dec&#45;&gt;y_out</title>
            <path fill="none" stroke="black" d="M543.06,-78.87C547.9,-70.58 553.57,-60.88 558.83,-51.88"/>
            <polygon fill="black" stroke="black" points="561.88,-53.59 563.91,-43.19 555.84,-50.06 561.88,-53.59"/>
        </g>
        <!-- y2_dec&#45;&gt;y_out -->
        <g id="edge34" class="edge">
            <title>y2_dec&#45;&gt;y_out</title>
            <path fill="none" stroke="black" d="M609.67,-78.87C604.72,-70.58 598.93,-60.88 593.55,-51.88"/>
            <polygon fill="black" stroke="black" points="596.49,-49.98 588.36,-43.19 590.49,-53.57 596.49,-49.98"/>
        </g>
        <!-- y3_dec&#45;&gt;y_out -->
        <g id="edge35" class="edge">
            <title>y3_dec&#45;&gt;y_out</title>
            <path fill="none" stroke="black"
                  d="M681.23,-78.94C676.82,-76.22 672.32,-73.5 668,-71 652.73,-62.16 635.71,-53 620.51,-45.06"/>
            <polygon fill="black" stroke="black" points="621.79,-41.78 611.31,-40.28 618.57,-47.99 621.79,-41.78"/>
        </g>
    </g>
</svg>
